<svg xmlns="http://www.w3.org/2000/svg" viewBox="0 0 24 24" fill="none" stroke="#0EA5E9" stroke-width="2" stroke-linecap="round" stroke-linejoin="round">
  <path d="M17.5 19c0-3.037-2.463-5.5-5.5-5.5S6.5 15.963 6.5 19"/>
  <path d="M12 13.5V19"/>
  <path d="M12 19h5.5"/>
  <path d="M12 19H6.5"/>
  <path d="M17.5 19a5.5 5.5 0 0 0 5-5.5c0-3.037-2.463-5.5-5.5-5.5-1.05 0-2.03.295-2.87.81C13.59 5.86 10.97 4 8 4 3.58 4 0 7.58 0 12c0 3.5 2.25 6.47 5.4 7.5"/>
  <path d="M12 19v-5.5"/>
  <path d="M8 12h8"/>
  <rect width="24" height="24" fill="none"/>
  <path d="M4 16.5c-1 0-2-.5-2-2.5 0-3 2.5-5.5 5.5-5.5 1.5 0 2.5.5 2.5 1.5"/>
  <path d="M20 16.5c1 0 2-.5 2-2.5 0-3-2.5-5.5-5.5-5.5-1.5 0-2.5.5-2.5 1.5"/>
  <!-- Simplified Cloud Icon -->
  <path d="M17.5 19C19.985 19 22 16.985 22 14.5C22 12.132 20.177 10.244 17.8 10.05C17.45 6.6 14.5 4 11 4C7.13 4 4 7.13 4 11C1.79 11.11 0 12.9 0 15C0 17.21 1.79 19 4 19L17.5 19Z" fill="#0EA5E9" stroke="none"/>
</svg>
